<svg width="900" height="200" viewBox="0 0 900 200" fill="none" xmlns="http://www.w3.org/2000/svg">
<g clip-path="url(#clip0_1_97)">
<path d="M227.93 149.14C205.952 167.029 174.521 168.097 151.499 151.75C127.37 134.611 118.412 102.88 129.389 76.0209L144.458 83.8119C137.585 102.106 142.823 122.746 158.141 135.598C169.145 144.826 184.394 148.255 198.929 144.769L196.313 133.84C185.216 136.501 173.651 133.939 165.362 126.991C152.648 116.317 149.099 98.5689 156.725 83.8299L159.311 78.8349L124.346 60.7659L121.766 65.7549C104.786 98.5359 114.776 139.447 144.989 160.915C162.884 173.617 185.081 177.4 205.547 172.453C216.11 169.9 226.214 165.028 235.025 157.858C237.629 155.734 240.041 153.379 242.345 150.931L231.944 145.555C230.651 146.803 229.322 148.009 227.93 149.14Z" fill="#326CE5"/>
<path d="M231.056 39.0879C204.248 20.0199 167.483 21.0369 141.659 41.5689C138.752 43.8729 136.079 46.4409 133.568 49.1259L143.963 54.4959C145.46 53.0529 147.014 51.6609 148.649 50.3589C170.585 32.9289 201.788 32.0529 224.543 48.2349C248.645 65.3799 257.582 97.0989 247.82 124.564L232.751 116.773C238.406 97.8939 233.198 77.2779 217.931 64.4229C206.639 54.9039 191.018 51.6039 176.105 55.4379L178.79 66.3489C190.136 63.3429 202.19 65.8509 210.698 73.0209C223.373 83.6949 226.898 101.419 219.284 116.137L216.698 121.132L251.669 139.201L254.243 134.212C271.202 101.446 261.239 60.5589 231.059 39.0849L231.056 39.0879Z" fill="#5FB7FF"/>
</g>
<path d="M296.678 106V52.1818H332.311V61.5632H308.056V74.3871H329.946V83.7685H308.056V106H296.678ZM350.949 52.1818V106H339.754V52.1818H350.949ZM385.801 88.8139V65.6364H396.995V106H386.248V98.6683H385.827C384.916 101.033 383.401 102.934 381.281 104.371C379.179 105.807 376.612 106.526 373.581 106.526C370.883 106.526 368.51 105.912 366.46 104.686C364.41 103.46 362.807 101.717 361.651 99.4567C360.512 97.1967 359.934 94.4901 359.917 91.3366V65.6364H371.111V89.3395C371.129 91.7221 371.768 93.6053 373.029 94.9893C374.291 96.3733 375.981 97.0653 378.101 97.0653C379.45 97.0653 380.712 96.7588 381.885 96.1456C383.059 95.5149 384.005 94.5864 384.723 93.3601C385.459 92.1338 385.818 90.6184 385.801 88.8139ZM415.305 65.6364L422.715 79.7479L430.31 65.6364H441.794L430.1 85.8182L442.109 106H430.678L422.715 92.0462L414.884 106H403.322L415.305 85.8182L403.742 65.6364H415.305ZM515.235 79.0909C515.235 84.9598 514.123 89.9527 511.898 94.0696C509.69 98.1866 506.677 101.331 502.858 103.504C499.056 105.658 494.782 106.736 490.034 106.736C485.251 106.736 480.959 105.65 477.158 103.477C473.356 101.305 470.352 98.1603 468.144 94.0433C465.937 89.9264 464.833 84.9422 464.833 79.0909C464.833 73.2221 465.937 68.2292 468.144 64.1122C470.352 59.9953 473.356 56.8594 477.158 54.7045C480.959 52.5322 485.251 51.446 490.034 51.446C494.782 51.446 499.056 52.5322 502.858 54.7045C506.677 56.8594 509.69 59.9953 511.898 64.1122C514.123 68.2292 515.235 73.2221 515.235 79.0909ZM503.699 79.0909C503.699 75.2893 503.13 72.0833 501.991 69.473C500.87 66.8627 499.284 64.8831 497.234 63.5341C495.185 62.1851 492.785 61.5107 490.034 61.5107C487.284 61.5107 484.884 62.1851 482.834 63.5341C480.784 64.8831 479.19 66.8627 478.051 69.473C476.93 72.0833 476.369 75.2893 476.369 79.0909C476.369 82.8925 476.93 86.0985 478.051 88.7088C479.19 91.3191 480.784 93.2988 482.834 94.6477C484.884 95.9967 487.284 96.6712 490.034 96.6712C492.785 96.6712 495.185 95.9967 497.234 94.6477C499.284 93.2988 500.87 91.3191 501.991 88.7088C503.13 86.0985 503.699 82.8925 503.699 79.0909ZM523.454 121.136V65.6364H534.491V72.4162H534.99C535.48 71.33 536.19 70.2263 537.118 69.1051C538.064 67.9664 539.291 67.0204 540.797 66.267C542.322 65.4962 544.214 65.1108 546.474 65.1108C549.417 65.1108 552.132 65.8816 554.62 67.4233C557.108 68.9474 559.096 71.2512 560.585 74.3345C562.074 77.4003 562.819 81.2457 562.819 85.8707C562.819 90.3731 562.092 94.1747 560.638 97.2756C559.201 100.359 557.239 102.698 554.751 104.292C552.281 105.869 549.513 106.657 546.447 106.657C544.275 106.657 542.427 106.298 540.903 105.58C539.396 104.861 538.161 103.959 537.197 102.873C536.234 101.769 535.498 100.657 534.99 99.5355H534.648V121.136H523.454ZM534.412 85.8182C534.412 88.2183 534.745 90.3118 535.41 92.0987C536.076 93.8857 537.04 95.2784 538.301 96.277C539.562 97.258 541.095 97.7486 542.9 97.7486C544.722 97.7486 546.263 97.2493 547.525 96.2507C548.786 95.2346 549.741 93.8331 550.389 92.0462C551.055 90.2417 551.388 88.1657 551.388 85.8182C551.388 83.4882 551.064 81.4384 550.415 79.669C549.767 77.8996 548.812 76.5156 547.551 75.517C546.29 74.5185 544.739 74.0192 542.9 74.0192C541.078 74.0192 539.536 74.5009 538.275 75.4645C537.031 76.428 536.076 77.7945 535.41 79.5639C534.745 81.3333 534.412 83.4181 534.412 85.8182ZM588.677 106.788C584.525 106.788 580.951 105.947 577.955 104.266C574.977 102.566 572.682 100.166 571.07 97.0653C569.458 93.947 568.653 90.2592 568.653 86.0021C568.653 81.8501 569.458 78.2062 571.07 75.0703C572.682 71.9344 574.951 69.4905 577.876 67.7386C580.819 65.9867 584.271 65.1108 588.23 65.1108C590.893 65.1108 593.372 65.54 595.667 66.3984C597.979 67.2393 599.994 68.5095 601.711 70.2088C603.445 71.9081 604.794 74.0455 605.758 76.6207C606.721 79.1785 607.203 82.1742 607.203 85.608V88.6825H573.12V81.745H596.665C596.665 80.1333 596.315 78.7055 595.614 77.4616C594.913 76.2178 593.941 75.2455 592.697 74.5447C591.471 73.8265 590.043 73.4673 588.414 73.4673C586.715 73.4673 585.208 73.8615 583.894 74.6499C582.598 75.4207 581.581 76.4631 580.846 77.777C580.11 79.0734 579.733 80.5187 579.716 82.1129V88.7088C579.716 90.706 580.084 92.4316 580.819 93.8857C581.573 95.3397 582.633 96.4609 583.999 97.2493C585.366 98.0376 586.986 98.4318 588.861 98.4318C590.104 98.4318 591.243 98.2566 592.277 97.9062C593.31 97.5559 594.195 97.0303 594.931 96.3295C595.667 95.6288 596.227 94.7704 596.613 93.7543L606.966 94.4375C606.441 96.9252 605.363 99.0975 603.734 100.955C602.122 102.794 600.038 104.231 597.48 105.264C594.94 106.28 592.005 106.788 588.677 106.788ZM614.508 106V65.6364H625.361V72.679H625.782C626.518 70.1738 627.753 68.2817 629.487 67.0028C631.221 65.7064 633.219 65.0582 635.479 65.0582C636.039 65.0582 636.644 65.0933 637.292 65.1633C637.94 65.2334 638.509 65.3298 639 65.4524V75.3857C638.474 75.228 637.747 75.0878 636.819 74.9652C635.89 74.8426 635.041 74.7812 634.27 74.7812C632.623 74.7812 631.151 75.1404 629.855 75.8587C628.576 76.5594 627.56 77.5405 626.807 78.8018C626.071 80.0632 625.703 81.5173 625.703 83.1641V106H614.508ZM655.141 106.762C652.566 106.762 650.271 106.315 648.256 105.422C646.242 104.511 644.647 103.171 643.474 101.401C642.317 99.6143 641.739 97.3894 641.739 94.7266C641.739 92.4841 642.151 90.6009 642.974 89.0767C643.798 87.5526 644.919 86.3262 646.338 85.3977C647.757 84.4692 649.369 83.7685 651.173 83.2955C652.995 82.8224 654.905 82.4896 656.902 82.2969C659.25 82.0516 661.142 81.8239 662.578 81.6136C664.015 81.3859 665.057 81.053 665.705 80.6151C666.353 80.1771 666.678 79.5289 666.678 78.6705V78.5128C666.678 76.8485 666.152 75.5608 665.101 74.6499C664.067 73.7389 662.596 73.2834 660.686 73.2834C658.671 73.2834 657.068 73.7301 655.877 74.6236C654.686 75.4995 653.897 76.6032 653.512 77.9347L643.158 77.0938C643.684 74.6411 644.718 72.5213 646.259 70.7344C647.801 68.9299 649.789 67.5459 652.224 66.5824C654.677 65.6013 657.515 65.1108 660.739 65.1108C662.981 65.1108 665.127 65.3736 667.177 65.8991C669.244 66.4247 671.075 67.2393 672.669 68.343C674.281 69.4467 675.551 70.8658 676.479 72.6001C677.408 74.317 677.872 76.3755 677.872 78.7756V106H667.256V100.403H666.94C666.292 101.664 665.425 102.777 664.339 103.74C663.253 104.686 661.947 105.431 660.423 105.974C658.899 106.499 657.138 106.762 655.141 106.762ZM658.347 99.0362C659.994 99.0362 661.448 98.7121 662.71 98.0639C663.971 97.3982 664.961 96.5047 665.679 95.3835C666.397 94.2623 666.756 92.9922 666.756 91.5732V87.2898C666.406 87.5175 665.924 87.7277 665.311 87.9205C664.715 88.0956 664.041 88.2621 663.288 88.4197C662.534 88.5599 661.781 88.6913 661.028 88.8139C660.274 88.919 659.591 89.0154 658.978 89.103C657.664 89.2957 656.517 89.6023 655.536 90.0227C654.554 90.4432 653.792 91.0125 653.249 91.7308C652.706 92.4316 652.435 93.3075 652.435 94.3587C652.435 95.8828 652.987 97.0478 654.09 97.8537C655.211 98.642 656.63 99.0362 658.347 99.0362ZM708.027 65.6364V74.0455H683.719V65.6364H708.027ZM689.238 55.9659H700.432V93.5966C700.432 94.6302 700.59 95.4361 700.905 96.0142C701.221 96.5748 701.658 96.969 702.219 97.1967C702.797 97.4245 703.463 97.5384 704.216 97.5384C704.742 97.5384 705.267 97.4946 705.793 97.407C706.319 97.3018 706.721 97.223 707.002 97.1705L708.762 105.501C708.202 105.676 707.413 105.877 706.397 106.105C705.381 106.35 704.146 106.499 702.692 106.552C699.994 106.657 697.629 106.298 695.597 105.474C693.582 104.651 692.014 103.372 690.893 101.638C689.772 99.9034 689.22 97.7135 689.238 95.0682V55.9659ZM733.123 106.788C729.041 106.788 725.511 105.921 722.532 104.187C719.572 102.435 717.285 99.9998 715.674 96.8814C714.062 93.7455 713.256 90.1103 713.256 85.9759C713.256 81.8063 714.062 78.1624 715.674 75.044C717.285 71.9081 719.572 69.473 722.532 67.7386C725.511 65.9867 729.041 65.1108 733.123 65.1108C737.204 65.1108 740.726 65.9867 743.686 67.7386C746.665 69.473 748.96 71.9081 750.571 75.044C752.183 78.1624 752.989 81.8063 752.989 85.9759C752.989 90.1103 752.183 93.7455 750.571 96.8814C748.96 99.9998 746.665 102.435 743.686 104.187C740.726 105.921 737.204 106.788 733.123 106.788ZM733.175 98.1165C735.032 98.1165 736.583 97.5909 737.826 96.5398C739.07 95.4711 740.007 94.017 740.638 92.1776C741.286 90.3381 741.61 88.2446 741.61 85.897C741.61 83.5495 741.286 81.456 740.638 79.6165C740.007 77.777 739.07 76.3229 737.826 75.2543C736.583 74.1856 735.032 73.6513 733.175 73.6513C731.301 73.6513 729.724 74.1856 728.445 75.2543C727.184 76.3229 726.229 77.777 725.581 79.6165C724.95 81.456 724.635 83.5495 724.635 85.897C724.635 88.2446 724.95 90.3381 725.581 92.1776C726.229 94.017 727.184 95.4711 728.445 96.5398C729.724 97.5909 731.301 98.1165 733.175 98.1165ZM760.268 106V65.6364H771.121V72.679H771.542C772.277 70.1738 773.512 68.2817 775.247 67.0028C776.981 65.7064 778.978 65.0582 781.238 65.0582C781.799 65.0582 782.403 65.0933 783.051 65.1633C783.7 65.2334 784.269 65.3298 784.76 65.4524V75.3857C784.234 75.228 783.507 75.0878 782.578 74.9652C781.65 74.8426 780.8 74.7812 780.029 74.7812C778.383 74.7812 776.911 75.1404 775.615 75.8587C774.336 76.5594 773.32 77.5405 772.566 78.8018C771.831 80.0632 771.463 81.5173 771.463 83.1641V106H760.268Z" fill="#326CE5"/>
<path d="M311.545 142.266C311.376 141.678 311.139 141.159 310.833 140.708C310.527 140.249 310.153 139.863 309.71 139.549C309.276 139.227 308.777 138.982 308.213 138.812C307.658 138.643 307.042 138.559 306.366 138.559C305.102 138.559 303.991 138.873 303.033 139.501C302.084 140.129 301.343 141.042 300.812 142.241C300.281 143.433 300.015 144.89 300.015 146.612C300.015 148.335 300.277 149.8 300.8 151.007C301.323 152.214 302.063 153.136 303.021 153.772C303.979 154.4 305.11 154.714 306.414 154.714C307.597 154.714 308.607 154.504 309.445 154.086C310.29 153.659 310.934 153.06 311.376 152.287C311.827 151.514 312.053 150.601 312.053 149.546L313.115 149.703H306.74V145.767H317.087V148.882C317.087 151.055 316.629 152.923 315.711 154.484C314.793 156.038 313.53 157.237 311.92 158.082C310.31 158.92 308.467 159.338 306.39 159.338C304.072 159.338 302.035 158.827 300.281 157.805C298.526 156.774 297.157 155.313 296.175 153.422C295.201 151.522 294.714 149.268 294.714 146.661C294.714 144.656 295.004 142.869 295.584 141.3C296.171 139.722 296.992 138.386 298.047 137.291C299.101 136.196 300.329 135.363 301.729 134.792C303.13 134.22 304.647 133.935 306.281 133.935C307.682 133.935 308.986 134.14 310.193 134.55C311.401 134.953 312.471 135.524 313.405 136.265C314.347 137.005 315.115 137.887 315.711 138.909C316.307 139.923 316.689 141.042 316.858 142.266H311.545ZM322.08 159V140.455H327.223V159H322.08ZM324.664 138.064C323.899 138.064 323.243 137.81 322.696 137.303C322.156 136.788 321.887 136.172 321.887 135.456C321.887 134.748 322.156 134.14 322.696 133.633C323.243 133.118 323.899 132.86 324.664 132.86C325.428 132.86 326.08 133.118 326.62 133.633C327.167 134.14 327.441 134.748 327.441 135.456C327.441 136.172 327.167 136.788 326.62 137.303C326.08 137.81 325.428 138.064 324.664 138.064ZM341.208 140.455V144.318H330.04V140.455H341.208ZM332.575 136.011H337.719V153.301C337.719 153.776 337.791 154.146 337.936 154.412C338.081 154.67 338.282 154.851 338.54 154.955C338.805 155.06 339.111 155.112 339.457 155.112C339.699 155.112 339.94 155.092 340.182 155.052C340.423 155.004 340.608 154.967 340.737 154.943L341.546 158.771C341.288 158.851 340.926 158.944 340.459 159.048C339.992 159.161 339.425 159.229 338.757 159.254C337.517 159.302 336.431 159.137 335.497 158.759C334.571 158.38 333.851 157.793 333.336 156.996C332.821 156.199 332.567 155.193 332.575 153.977V136.011ZM367.378 146.636C367.378 149.333 366.867 151.627 365.845 153.518C364.83 155.41 363.446 156.855 361.691 157.853C359.945 158.843 357.981 159.338 355.799 159.338C353.602 159.338 351.63 158.839 349.883 157.841C348.136 156.843 346.756 155.398 345.742 153.506C344.727 151.615 344.22 149.325 344.22 146.636C344.22 143.94 344.727 141.646 345.742 139.754C346.756 137.863 348.136 136.422 349.883 135.432C351.63 134.434 353.602 133.935 355.799 133.935C357.981 133.935 359.945 134.434 361.691 135.432C363.446 136.422 364.83 137.863 365.845 139.754C366.867 141.646 367.378 143.94 367.378 146.636ZM362.078 146.636C362.078 144.89 361.816 143.417 361.293 142.217C360.778 141.018 360.049 140.108 359.107 139.489C358.166 138.869 357.063 138.559 355.799 138.559C354.535 138.559 353.433 138.869 352.491 139.489C351.549 140.108 350.817 141.018 350.294 142.217C349.778 143.417 349.521 144.89 349.521 146.636C349.521 148.383 349.778 149.856 350.294 151.055C350.817 152.255 351.549 153.164 352.491 153.784C353.433 154.404 354.535 154.714 355.799 154.714C357.063 154.714 358.166 154.404 359.107 153.784C360.049 153.164 360.778 152.255 361.293 151.055C361.816 149.856 362.078 148.383 362.078 146.636ZM371.154 165.955V140.455H376.225V143.57H376.455C376.68 143.071 377.006 142.563 377.433 142.048C377.867 141.525 378.431 141.09 379.123 140.744C379.823 140.39 380.692 140.213 381.731 140.213C383.083 140.213 384.331 140.567 385.474 141.276C386.617 141.976 387.53 143.034 388.214 144.451C388.899 145.86 389.241 147.626 389.241 149.751C389.241 151.82 388.907 153.567 388.239 154.991C387.579 156.408 386.677 157.483 385.534 158.215C384.399 158.94 383.127 159.302 381.719 159.302C380.721 159.302 379.871 159.137 379.171 158.807C378.479 158.477 377.911 158.062 377.469 157.563C377.026 157.056 376.688 156.545 376.455 156.03H376.298V165.955H371.154ZM376.189 149.727C376.189 150.83 376.342 151.792 376.648 152.613C376.954 153.434 377.396 154.074 377.976 154.533C378.555 154.983 379.26 155.209 380.089 155.209C380.926 155.209 381.634 154.979 382.214 154.521C382.793 154.054 383.232 153.41 383.53 152.589C383.836 151.76 383.989 150.806 383.989 149.727C383.989 148.657 383.84 147.715 383.542 146.902C383.244 146.089 382.805 145.453 382.226 144.994C381.646 144.536 380.934 144.306 380.089 144.306C379.252 144.306 378.543 144.527 377.964 144.97C377.392 145.413 376.954 146.041 376.648 146.854C376.342 147.667 376.189 148.625 376.189 149.727ZM408.1 145.743L403.391 146.033C403.311 145.63 403.138 145.268 402.872 144.946C402.607 144.616 402.256 144.354 401.822 144.161C401.395 143.96 400.884 143.859 400.288 143.859C399.491 143.859 398.819 144.028 398.272 144.366C397.725 144.696 397.451 145.139 397.451 145.695C397.451 146.137 397.628 146.512 397.982 146.817C398.336 147.123 398.944 147.369 399.805 147.554L403.162 148.23C404.965 148.6 406.309 149.196 407.195 150.017C408.08 150.838 408.523 151.917 408.523 153.253C408.523 154.468 408.165 155.535 407.448 156.452C406.74 157.37 405.766 158.086 404.526 158.602C403.295 159.109 401.874 159.362 400.264 159.362C397.809 159.362 395.853 158.851 394.396 157.829C392.947 156.799 392.098 155.398 391.849 153.627L396.908 153.362C397.061 154.11 397.431 154.682 398.018 155.076C398.606 155.462 399.359 155.656 400.276 155.656C401.178 155.656 401.902 155.482 402.45 155.136C403.005 154.782 403.287 154.327 403.295 153.772C403.287 153.305 403.089 152.923 402.703 152.625C402.317 152.319 401.721 152.086 400.916 151.925L397.705 151.285C395.893 150.923 394.545 150.295 393.66 149.401C392.782 148.508 392.344 147.369 392.344 145.984C392.344 144.793 392.666 143.767 393.31 142.906C393.962 142.044 394.875 141.38 396.05 140.913C397.234 140.446 398.618 140.213 400.204 140.213C402.546 140.213 404.389 140.708 405.734 141.698C407.086 142.688 407.875 144.036 408.1 145.743ZM428.01 159.362C426.134 159.362 424.513 158.964 423.144 158.167C421.784 157.362 420.733 156.243 419.993 154.81C419.252 153.37 418.882 151.699 418.882 149.8C418.882 147.884 419.252 146.21 419.993 144.777C420.733 143.336 421.784 142.217 423.144 141.42C424.513 140.616 426.134 140.213 428.01 140.213C429.885 140.213 431.503 140.616 432.864 141.42C434.232 142.217 435.286 143.336 436.027 144.777C436.768 146.21 437.138 147.884 437.138 149.8C437.138 151.699 436.768 153.37 436.027 154.81C435.286 156.243 434.232 157.362 432.864 158.167C431.503 158.964 429.885 159.362 428.01 159.362ZM428.034 155.378C428.887 155.378 429.6 155.136 430.171 154.653C430.743 154.162 431.173 153.494 431.463 152.649C431.761 151.804 431.91 150.842 431.91 149.763C431.91 148.685 431.761 147.723 431.463 146.878C431.173 146.033 430.743 145.365 430.171 144.874C429.6 144.383 428.887 144.137 428.034 144.137C427.173 144.137 426.448 144.383 425.861 144.874C425.281 145.365 424.843 146.033 424.545 146.878C424.255 147.723 424.11 148.685 424.11 149.763C424.11 150.842 424.255 151.804 424.545 152.649C424.843 153.494 425.281 154.162 425.861 154.653C426.448 155.136 427.173 155.378 428.034 155.378ZM445.626 148.278V159H440.482V140.455H445.384V143.727H445.602C446.012 142.648 446.7 141.795 447.666 141.167C448.632 140.531 449.803 140.213 451.18 140.213C452.468 140.213 453.59 140.495 454.548 141.058C455.506 141.622 456.251 142.427 456.782 143.473C457.313 144.511 457.579 145.751 457.579 147.192V159H452.435V148.109C452.443 146.974 452.154 146.089 451.566 145.453C450.978 144.809 450.17 144.487 449.139 144.487C448.447 144.487 447.835 144.636 447.304 144.934C446.781 145.232 446.37 145.666 446.072 146.238C445.783 146.801 445.634 147.482 445.626 148.278ZM473.86 159H468.258L476.794 134.273H483.532L492.056 159H486.453L480.26 139.923H480.066L473.86 159ZM473.51 149.281H486.743V153.362H473.51V149.281ZM506.828 151.104V140.455H511.972V159H507.033V155.631H506.84C506.422 156.718 505.725 157.591 504.751 158.251C503.786 158.911 502.606 159.241 501.214 159.241C499.974 159.241 498.884 158.96 497.942 158.396C497 157.833 496.263 157.032 495.732 155.994C495.209 154.955 494.943 153.712 494.935 152.263V140.455H500.079V151.345C500.087 152.44 500.381 153.305 500.96 153.941C501.54 154.577 502.317 154.895 503.29 154.895C503.91 154.895 504.49 154.754 505.029 154.472C505.568 154.183 506.003 153.756 506.333 153.192C506.671 152.629 506.836 151.933 506.828 151.104ZM525.95 140.455V144.318H514.782V140.455H525.95ZM517.317 136.011H522.461V153.301C522.461 153.776 522.533 154.146 522.678 154.412C522.823 154.67 523.024 154.851 523.282 154.955C523.547 155.06 523.853 155.112 524.199 155.112C524.441 155.112 524.682 155.092 524.924 155.052C525.165 155.004 525.35 154.967 525.479 154.943L526.288 158.771C526.031 158.851 525.668 158.944 525.202 159.048C524.735 159.161 524.167 159.229 523.499 159.254C522.26 159.302 521.173 159.137 520.239 158.759C519.314 158.38 518.593 157.793 518.078 156.996C517.563 156.199 517.309 155.193 517.317 153.977V136.011ZM537.481 159.362C535.605 159.362 533.983 158.964 532.615 158.167C531.255 157.362 530.204 156.243 529.464 154.81C528.723 153.37 528.353 151.699 528.353 149.8C528.353 147.884 528.723 146.21 529.464 144.777C530.204 143.336 531.255 142.217 532.615 141.42C533.983 140.616 535.605 140.213 537.481 140.213C539.356 140.213 540.974 140.616 542.334 141.42C543.703 142.217 544.757 143.336 545.498 144.777C546.238 146.21 546.608 147.884 546.608 149.8C546.608 151.699 546.238 153.37 545.498 154.81C544.757 156.243 543.703 157.362 542.334 158.167C540.974 158.964 539.356 159.362 537.481 159.362ZM537.505 155.378C538.358 155.378 539.07 155.136 539.642 154.653C540.213 154.162 540.644 153.494 540.934 152.649C541.232 151.804 541.381 150.842 541.381 149.763C541.381 148.685 541.232 147.723 540.934 146.878C540.644 146.033 540.213 145.365 539.642 144.874C539.07 144.383 538.358 144.137 537.505 144.137C536.644 144.137 535.919 144.383 535.331 144.874C534.752 145.365 534.313 146.033 534.015 146.878C533.726 147.723 533.581 148.685 533.581 149.763C533.581 150.842 533.726 151.804 534.015 152.649C534.313 153.494 534.752 154.162 535.331 154.653C535.919 155.136 536.644 155.378 537.505 155.378ZM549.953 165.955V140.455H555.024V143.57H555.253C555.479 143.071 555.805 142.563 556.231 142.048C556.666 141.525 557.229 141.09 557.922 140.744C558.622 140.39 559.491 140.213 560.53 140.213C561.882 140.213 563.13 140.567 564.273 141.276C565.416 141.976 566.329 143.034 567.013 144.451C567.698 145.86 568.04 147.626 568.04 149.751C568.04 151.82 567.706 153.567 567.037 154.991C566.377 156.408 565.476 157.483 564.333 158.215C563.198 158.94 561.926 159.302 560.518 159.302C559.519 159.302 558.67 159.137 557.97 158.807C557.278 158.477 556.71 158.062 556.268 157.563C555.825 157.056 555.487 156.545 555.253 156.03H555.096V165.955H549.953ZM554.988 149.727C554.988 150.83 555.141 151.792 555.447 152.613C555.752 153.434 556.195 154.074 556.775 154.533C557.354 154.983 558.059 155.209 558.888 155.209C559.725 155.209 560.433 154.979 561.013 154.521C561.592 154.054 562.031 153.41 562.329 152.589C562.635 151.76 562.787 150.806 562.787 149.727C562.787 148.657 562.639 147.715 562.341 146.902C562.043 146.089 561.604 145.453 561.025 144.994C560.445 144.536 559.733 144.306 558.888 144.306C558.05 144.306 557.342 144.527 556.763 144.97C556.191 145.413 555.752 146.041 555.447 146.854C555.141 147.667 554.988 148.625 554.988 149.727ZM571.469 159V140.455H576.612V159H571.469ZM574.052 138.064C573.288 138.064 572.632 137.81 572.084 137.303C571.545 136.788 571.275 136.172 571.275 135.456C571.275 134.748 571.545 134.14 572.084 133.633C572.632 133.118 573.288 132.86 574.052 132.86C574.817 132.86 575.469 133.118 576.008 133.633C576.556 134.14 576.829 134.748 576.829 135.456C576.829 136.172 576.556 136.788 576.008 137.303C575.469 137.81 574.817 138.064 574.052 138.064ZM585.876 134.273V159H580.732V134.273H585.876ZM598.375 159.362C596.5 159.362 594.878 158.964 593.509 158.167C592.149 157.362 591.099 156.243 590.358 154.81C589.618 153.37 589.247 151.699 589.247 149.8C589.247 147.884 589.618 146.21 590.358 144.777C591.099 143.336 592.149 142.217 593.509 141.42C594.878 140.616 596.5 140.213 598.375 140.213C600.251 140.213 601.869 140.616 603.229 141.42C604.597 142.217 605.652 143.336 606.392 144.777C607.133 146.21 607.503 147.884 607.503 149.8C607.503 151.699 607.133 153.37 606.392 154.81C605.652 156.243 604.597 157.362 603.229 158.167C601.869 158.964 600.251 159.362 598.375 159.362ZM598.399 155.378C599.253 155.378 599.965 155.136 600.536 154.653C601.108 154.162 601.539 153.494 601.828 152.649C602.126 151.804 602.275 150.842 602.275 149.763C602.275 148.685 602.126 147.723 601.828 146.878C601.539 146.033 601.108 145.365 600.536 144.874C599.965 144.383 599.253 144.137 598.399 144.137C597.538 144.137 596.814 144.383 596.226 144.874C595.646 145.365 595.208 146.033 594.91 146.878C594.62 147.723 594.475 148.685 594.475 149.763C594.475 150.842 594.62 151.804 594.91 152.649C595.208 153.494 595.646 154.162 596.226 154.653C596.814 155.136 597.538 155.378 598.399 155.378ZM620.712 140.455V144.318H609.544V140.455H620.712ZM612.079 136.011H617.222V153.301C617.222 153.776 617.295 154.146 617.44 154.412C617.585 154.67 617.786 154.851 618.044 154.955C618.309 155.06 618.615 155.112 618.961 155.112C619.203 155.112 619.444 155.092 619.686 155.052C619.927 155.004 620.112 154.967 620.241 154.943L621.05 158.771C620.792 158.851 620.43 158.944 619.963 159.048C619.496 159.161 618.929 159.229 618.261 159.254C617.021 159.302 615.935 159.137 615.001 158.759C614.075 158.38 613.355 157.793 612.84 156.996C612.325 156.199 612.071 155.193 612.079 153.977V136.011ZM632.028 134.273H638.475L645.285 150.886H645.575L652.385 134.273H658.832V159H653.761V142.906H653.556L647.157 158.879H643.703L637.304 142.845H637.099V159H632.028V134.273ZM671.422 159.362C669.547 159.362 667.925 158.964 666.556 158.167C665.196 157.362 664.146 156.243 663.405 154.81C662.664 153.37 662.294 151.699 662.294 149.8C662.294 147.884 662.664 146.21 663.405 144.777C664.146 143.336 665.196 142.217 666.556 141.42C667.925 140.616 669.547 140.213 671.422 140.213C673.298 140.213 674.915 140.616 676.276 141.42C677.644 142.217 678.699 143.336 679.439 144.777C680.18 146.21 680.55 147.884 680.55 149.8C680.55 151.699 680.18 153.37 679.439 154.81C678.699 156.243 677.644 157.362 676.276 158.167C674.915 158.964 673.298 159.362 671.422 159.362ZM671.446 155.378C672.299 155.378 673.012 155.136 673.583 154.653C674.155 154.162 674.585 153.494 674.875 152.649C675.173 151.804 675.322 150.842 675.322 149.763C675.322 148.685 675.173 147.723 674.875 146.878C674.585 146.033 674.155 145.365 673.583 144.874C673.012 144.383 672.299 144.137 671.446 144.137C670.585 144.137 669.86 144.383 669.273 144.874C668.693 145.365 668.255 146.033 667.957 146.878C667.667 147.723 667.522 148.685 667.522 149.763C667.522 150.842 667.667 151.804 667.957 152.649C668.255 153.494 668.693 154.162 669.273 154.653C669.86 155.136 670.585 155.378 671.446 155.378ZM690.728 159.302C689.32 159.302 688.044 158.94 686.901 158.215C685.766 157.483 684.864 156.408 684.196 154.991C683.536 153.567 683.206 151.82 683.206 149.751C683.206 147.626 683.548 145.86 684.232 144.451C684.917 143.034 685.826 141.976 686.961 141.276C688.104 140.567 689.356 140.213 690.716 140.213C691.754 140.213 692.62 140.39 693.312 140.744C694.012 141.09 694.576 141.525 695.002 142.048C695.437 142.563 695.767 143.071 695.992 143.57H696.149V134.273H701.281V159H696.21V156.03H695.992C695.751 156.545 695.409 157.056 694.966 157.563C694.531 158.062 693.964 158.477 693.264 158.807C692.571 159.137 691.726 159.302 690.728 159.302ZM692.358 155.209C693.187 155.209 693.887 154.983 694.459 154.533C695.039 154.074 695.481 153.434 695.787 152.613C696.101 151.792 696.258 150.83 696.258 149.727C696.258 148.625 696.105 147.667 695.799 146.854C695.493 146.041 695.051 145.413 694.471 144.97C693.892 144.527 693.187 144.306 692.358 144.306C691.513 144.306 690.801 144.536 690.221 144.994C689.642 145.453 689.203 146.089 688.905 146.902C688.607 147.715 688.458 148.657 688.458 149.727C688.458 150.806 688.607 151.76 688.905 152.589C689.211 153.41 689.65 154.054 690.221 154.521C690.801 154.979 691.513 155.209 692.358 155.209ZM713.961 159.362C712.054 159.362 710.412 158.976 709.035 158.203C707.667 157.422 706.612 156.32 705.872 154.895C705.131 153.462 704.761 151.768 704.761 149.812C704.761 147.904 705.131 146.23 705.872 144.789C706.612 143.348 707.655 142.225 708.999 141.42C710.351 140.616 711.937 140.213 713.756 140.213C714.98 140.213 716.118 140.41 717.173 140.805C718.235 141.191 719.161 141.775 719.95 142.555C720.747 143.336 721.367 144.318 721.809 145.501C722.252 146.677 722.473 148.053 722.473 149.631V151.043H706.814V147.856H717.632C717.632 147.115 717.471 146.459 717.149 145.888C716.827 145.316 716.38 144.87 715.809 144.548C715.245 144.218 714.589 144.053 713.841 144.053C713.06 144.053 712.368 144.234 711.764 144.596C711.168 144.95 710.701 145.429 710.363 146.033C710.025 146.628 709.852 147.292 709.844 148.025V151.055C709.844 151.973 710.013 152.766 710.351 153.434C710.697 154.102 711.184 154.617 711.812 154.979C712.44 155.342 713.185 155.523 714.046 155.523C714.617 155.523 715.141 155.442 715.615 155.281C716.09 155.12 716.497 154.879 716.835 154.557C717.173 154.235 717.431 153.84 717.608 153.374L722.365 153.688C722.123 154.83 721.628 155.829 720.88 156.682C720.139 157.527 719.181 158.187 718.006 158.662C716.839 159.129 715.491 159.362 713.961 159.362Z" fill="#5FB7FF"/>
<defs>
<clipPath id="clip0_1_97">
<rect width="150" height="150" fill="white" transform="translate(113 25)"/>
</clipPath>
</defs>
</svg>
