<svg width="900" height="200" viewBox="0 0 900 200" fill="none" xmlns="http://www.w3.org/2000/svg">
<g clip-path="url(#clip0_1_13)">
<path d="M145.592 152.416C122.149 171.498 88.6224 172.637 64.0656 155.2C38.328 136.918 28.7728 103.072 40.4816 74.4224L56.5552 82.7328C49.224 102.246 54.8112 124.262 71.1504 137.971C82.888 147.814 99.1536 151.472 114.658 147.754L111.867 136.096C100.03 138.934 87.6944 136.202 78.8528 128.79C65.2912 117.405 61.5056 98.4736 69.64 82.752L72.3984 77.424L35.1024 58.1504L32.3504 63.472C14.2384 98.4384 24.8944 142.077 57.1216 164.976C76.2096 178.525 99.8864 182.56 121.717 177.283C132.984 174.56 143.762 169.363 153.16 161.715C155.938 159.45 158.51 156.938 160.968 154.326L149.874 148.592C148.494 149.923 147.077 151.21 145.592 152.416Z" fill="#326CE5"/>
<path d="M148.926 35.0272C120.331 14.688 81.1152 15.7728 53.5696 37.6736C50.4688 40.1312 47.6176 42.8704 44.9392 45.7344L56.0272 51.4624C57.624 49.9232 59.2816 48.4384 61.0256 47.0496C84.424 28.4576 117.707 27.5232 141.979 44.784C167.688 63.072 177.221 96.9056 166.808 126.202L150.734 117.891C156.766 97.7536 151.211 75.7632 134.926 62.0512C122.882 51.8976 106.219 48.3776 90.312 52.4672L93.176 64.1056C105.278 60.8992 118.136 63.5744 127.211 71.2224C140.731 82.608 144.491 101.514 136.37 117.213L133.611 122.541L170.914 141.814L173.659 136.493C191.749 101.542 181.122 57.9296 148.93 35.024L148.926 35.0272Z" fill="#5FB7FF"/>
</g>
<path d="M215.321 137V64.2727H263.474V76.9503H230.697V94.2798H260.278V106.957H230.697V137H215.321ZM288.661 64.2727V137H273.533V64.2727H288.661ZM335.758 113.776V82.4545H350.886V137H336.362V127.092H335.793C334.562 130.288 332.514 132.857 329.65 134.798C326.809 136.74 323.341 137.71 319.245 137.71C315.599 137.71 312.391 136.882 309.621 135.224C306.852 133.567 304.685 131.212 303.123 128.158C301.584 125.104 300.803 121.446 300.779 117.185V82.4545H315.907V114.486C315.931 117.705 316.795 120.25 318.499 122.121C320.204 123.991 322.488 124.926 325.353 124.926C327.176 124.926 328.88 124.512 330.467 123.683C332.053 122.831 333.331 121.576 334.302 119.919C335.296 118.262 335.781 116.214 335.758 113.776ZM375.628 82.4545L385.642 101.524L395.905 82.4545H411.424L395.621 109.727L411.85 137H396.402L385.642 118.143L375.06 137H359.435L375.628 109.727L360.003 82.4545H375.628ZM510.669 100.636C510.669 108.567 509.166 115.314 506.159 120.878C503.176 126.441 499.104 130.691 493.943 133.626C488.806 136.538 483.029 137.994 476.614 137.994C470.151 137.994 464.35 136.527 459.213 133.591C454.076 130.655 450.016 126.406 447.033 120.842C444.05 115.279 442.558 108.544 442.558 100.636C442.558 92.7055 444.05 85.9583 447.033 80.3949C450.016 74.8314 454.076 70.5937 459.213 67.6818C464.35 64.7462 470.151 63.2784 476.614 63.2784C483.029 63.2784 488.806 64.7462 493.943 67.6818C499.104 70.5937 503.176 74.8314 506.159 80.3949C509.166 85.9583 510.669 92.7055 510.669 100.636ZM495.08 100.636C495.08 95.4991 494.31 91.1667 492.771 87.6392C491.256 84.1117 489.114 81.4366 486.344 79.6136C483.574 77.7907 480.33 76.8793 476.614 76.8793C472.897 76.8793 469.653 77.7907 466.884 79.6136C464.114 81.4366 461.959 84.1117 460.42 87.6392C458.905 91.1667 458.148 95.4991 458.148 100.636C458.148 105.774 458.905 110.106 460.42 113.634C461.959 117.161 464.114 119.836 466.884 121.659C469.653 123.482 472.897 124.393 476.614 124.393C480.33 124.393 483.574 123.482 486.344 121.659C489.114 119.836 491.256 117.161 492.771 113.634C494.31 110.106 495.08 105.774 495.08 100.636ZM521.775 157.455V82.4545H536.69V91.6165H537.365C538.028 90.1487 538.986 88.6572 540.241 87.142C541.52 85.6032 543.177 84.3248 545.213 83.3068C547.272 82.2652 549.829 81.7443 552.883 81.7443C556.86 81.7443 560.53 82.786 563.892 84.8693C567.253 86.929 569.94 90.0421 571.953 94.2088C573.965 98.3518 574.971 103.548 574.971 109.798C574.971 115.883 573.989 121.02 572.024 125.21C570.083 129.377 567.431 132.537 564.069 134.692C560.731 136.822 556.991 137.888 552.848 137.888C549.912 137.888 547.414 137.402 545.355 136.432C543.319 135.461 541.65 134.242 540.348 132.774C539.046 131.283 538.051 129.779 537.365 128.264H536.903V157.455H521.775ZM536.583 109.727C536.583 112.971 537.033 115.8 537.933 118.214C538.833 120.629 540.135 122.511 541.839 123.861C543.544 125.187 545.615 125.849 548.054 125.849C550.516 125.849 552.599 125.175 554.304 123.825C556.008 122.452 557.298 120.558 558.174 118.143C559.074 115.705 559.524 112.9 559.524 109.727C559.524 106.579 559.086 103.809 558.21 101.418C557.334 99.0265 556.044 97.1562 554.339 95.8068C552.635 94.4574 550.539 93.7827 548.054 93.7827C545.592 93.7827 543.508 94.4337 541.804 95.7358C540.123 97.0379 538.833 98.8845 537.933 101.276C537.033 103.667 536.583 106.484 536.583 109.727ZM609.914 138.065C604.304 138.065 599.474 136.929 595.426 134.656C591.401 132.36 588.3 129.116 586.122 124.926C583.944 120.712 582.855 115.729 582.855 109.976C582.855 104.365 583.944 99.4408 586.122 95.2031C588.3 90.9654 591.366 87.6629 595.319 85.2955C599.297 82.928 603.96 81.7443 609.311 81.7443C612.909 81.7443 616.259 82.3243 619.36 83.4844C622.485 84.6207 625.208 86.3371 627.528 88.6335C629.872 90.9299 631.695 93.8182 632.997 97.2983C634.299 100.755 634.95 104.803 634.95 109.443V113.598H588.892V104.223H620.71C620.71 102.045 620.236 100.116 619.289 98.4347C618.342 96.7538 617.029 95.4399 615.348 94.4929C613.69 93.5223 611.761 93.0369 609.559 93.0369C607.263 93.0369 605.227 93.5696 603.451 94.6349C601.699 95.6766 600.326 97.0852 599.332 98.8608C598.338 100.613 597.829 102.566 597.805 104.72V113.634C597.805 116.332 598.302 118.664 599.297 120.629C600.315 122.594 601.747 124.109 603.593 125.175C605.44 126.24 607.63 126.773 610.163 126.773C611.844 126.773 613.383 126.536 614.779 126.062C616.176 125.589 617.372 124.879 618.366 123.932C619.36 122.985 620.118 121.825 620.639 120.452L634.63 121.375C633.92 124.737 632.464 127.672 630.262 130.182C628.084 132.668 625.267 134.609 621.811 136.006C618.378 137.379 614.413 138.065 609.914 138.065ZM644.822 137V82.4545H659.488V91.9716H660.056C661.051 88.5862 662.72 86.0294 665.064 84.3011C667.407 82.5492 670.106 81.6733 673.16 81.6733C673.918 81.6733 674.734 81.7206 675.61 81.8153C676.486 81.91 677.256 82.0402 677.919 82.206V95.6293C677.208 95.4162 676.226 95.2268 674.971 95.0611C673.717 94.8954 672.568 94.8125 671.527 94.8125C669.301 94.8125 667.313 95.2978 665.561 96.2685C663.833 97.2154 662.459 98.5412 661.441 100.246C660.447 101.95 659.95 103.915 659.95 106.141V137H644.822ZM699.732 138.03C696.251 138.03 693.15 137.426 690.428 136.219C687.705 134.988 685.551 133.177 683.964 130.786C682.402 128.371 681.621 125.364 681.621 121.766C681.621 118.735 682.177 116.19 683.29 114.131C684.402 112.071 685.918 110.414 687.835 109.159C689.753 107.904 691.931 106.957 694.369 106.318C696.831 105.679 699.412 105.229 702.111 104.969C705.283 104.637 707.84 104.33 709.781 104.045C711.723 103.738 713.131 103.288 714.007 102.696C714.883 102.104 715.321 101.228 715.321 100.068V99.8551C715.321 97.6061 714.611 95.866 713.19 94.6349C711.794 93.4039 709.805 92.7884 707.224 92.7884C704.502 92.7884 702.336 93.392 700.726 94.5994C699.116 95.7831 698.051 97.2746 697.53 99.0739L683.538 97.9375C684.249 94.6231 685.645 91.7585 687.729 89.3438C689.812 86.9053 692.499 85.035 695.79 83.733C699.104 82.4072 702.939 81.7443 707.295 81.7443C710.326 81.7443 713.226 82.0994 715.996 82.8097C718.789 83.5199 721.263 84.6207 723.418 86.1122C725.596 87.6037 727.312 89.5213 728.567 91.8651C729.821 94.1851 730.449 96.9669 730.449 100.21V137H716.102V129.436H715.676C714.8 131.141 713.628 132.644 712.161 133.946C710.693 135.224 708.929 136.231 706.869 136.964C704.81 137.675 702.43 138.03 699.732 138.03ZM704.064 127.589C706.289 127.589 708.254 127.152 709.959 126.276C711.663 125.376 713.001 124.169 713.972 122.653C714.942 121.138 715.428 119.422 715.428 117.504V111.716C714.954 112.024 714.303 112.308 713.474 112.568C712.67 112.805 711.758 113.03 710.74 113.243C709.722 113.432 708.704 113.61 707.686 113.776C706.668 113.918 705.745 114.048 704.916 114.166C703.141 114.427 701.59 114.841 700.264 115.409C698.938 115.977 697.909 116.747 697.175 117.717C696.441 118.664 696.074 119.848 696.074 121.268C696.074 123.328 696.82 124.902 698.311 125.991C699.826 127.057 701.744 127.589 704.064 127.589ZM771.198 82.4545V93.8182H738.35V82.4545H771.198ZM745.808 69.3864H760.935V120.239C760.935 121.635 761.148 122.724 761.575 123.506C762.001 124.263 762.593 124.796 763.35 125.104C764.131 125.411 765.031 125.565 766.049 125.565C766.759 125.565 767.469 125.506 768.18 125.388C768.89 125.246 769.434 125.139 769.813 125.068L772.192 136.325C771.435 136.562 770.37 136.834 768.996 137.142C767.623 137.473 765.954 137.675 763.989 137.746C760.344 137.888 757.147 137.402 754.401 136.29C751.679 135.177 749.56 133.449 748.045 131.105C746.53 128.761 745.784 125.802 745.808 122.227V69.3864ZM805.112 138.065C799.595 138.065 794.825 136.893 790.8 134.55C786.799 132.182 783.71 128.892 781.532 124.678C779.354 120.44 778.265 115.527 778.265 109.94C778.265 104.306 779.354 99.3816 781.532 95.1676C783.71 90.9299 786.799 87.6392 790.8 85.2955C794.825 82.928 799.595 81.7443 805.112 81.7443C810.628 81.7443 815.386 82.928 819.387 85.2955C823.412 87.6392 826.513 90.9299 828.691 95.1676C830.869 99.3816 831.958 104.306 831.958 109.94C831.958 115.527 830.869 120.44 828.691 124.678C826.513 128.892 823.412 132.182 819.387 134.55C815.386 136.893 810.628 138.065 805.112 138.065ZM805.183 126.347C807.692 126.347 809.787 125.636 811.468 124.216C813.149 122.772 814.415 120.807 815.268 118.321C816.144 115.835 816.582 113.006 816.582 109.834C816.582 106.661 816.144 103.832 815.268 101.347C814.415 98.8608 813.149 96.8958 811.468 95.4517C809.787 94.0076 807.692 93.2855 805.183 93.2855C802.649 93.2855 800.519 94.0076 798.79 95.4517C797.086 96.8958 795.796 98.8608 794.92 101.347C794.067 103.832 793.641 106.661 793.641 109.834C793.641 113.006 794.067 115.835 794.92 118.321C795.796 120.807 797.086 122.772 798.79 124.216C800.519 125.636 802.649 126.347 805.183 126.347ZM841.795 137V82.4545H856.461V91.9716H857.029C858.023 88.5862 859.692 86.0294 862.036 84.3011C864.38 82.5492 867.079 81.6733 870.133 81.6733C870.89 81.6733 871.707 81.7206 872.583 81.8153C873.459 81.91 874.228 82.0402 874.891 82.206V95.6293C874.181 95.4162 873.199 95.2268 871.944 95.0611C870.689 94.8954 869.541 94.8125 868.499 94.8125C866.274 94.8125 864.285 95.2978 862.533 96.2685C860.805 97.2154 859.432 98.5412 858.414 100.246C857.42 101.95 856.923 103.915 856.923 106.141V137H841.795Z" fill="#326CE5"/>
<defs>
<clipPath id="clip0_1_13">
<rect width="160" height="160" fill="white" transform="translate(23 20)"/>
</clipPath>
</defs>
</svg>
