<svg xmlns="http://www.w3.org/2000/svg" width="462" height="100" viewBox="0 0 462 100">
  <g transform="translate(10,10) scale(0.16)">
    <path fill="#326ce5" d="M383.1,413.8c-73.26,59.63-178.03,63.19-254.77,8.7-80.43-57.13-110.29-162.9-73.7-252.43l50.23,25.97c-22.91,60.98-5.45,129.78,45.61,172.62,36.68,30.76,87.51,42.19,135.96,30.57l-8.72-36.43c-36.99,8.87-75.54.33-103.17-22.83-42.38-35.58-54.21-94.74-28.79-143.87l8.62-16.65-116.55-60.23-8.6,16.63C-27.38,245.12,5.92,381.49,106.63,453.05c59.65,42.34,133.64,54.95,201.86,38.46,35.21-8.51,68.89-24.75,98.26-48.65,8.68-7.08,16.72-14.93,24.4-23.09l-34.67-17.92c-4.31,4.16-8.74,8.18-13.38,11.95Z"/>
    <path fill="#5fb7ff" d="M393.52,46.96C304.16-16.6,181.61-13.21,95.53,55.23c-9.69,7.68-18.6,16.24-26.97,25.19l34.65,17.9c4.99-4.81,10.17-9.45,15.62-13.79,73.12-58.1,177.13-61.02,252.98-7.08,80.34,57.15,110.13,162.88,77.59,254.43l-50.23-25.97c18.85-62.93,1.49-131.65-49.4-174.5-37.64-31.73-89.71-42.73-139.42-29.95l8.95,36.37c37.82-10.02,78-1.66,106.36,22.24,42.25,35.58,54,94.66,28.62,143.72l-8.62,16.65,116.57,60.23,8.58-16.63c56.53-109.22,23.32-245.51-77.28-317.09"/>
  </g>
  <text x="106" y="68" font-family="Inter" font-size="52" font-weight="600">
    <tspan fill="#326ce5">Flux</tspan><tspan fill="#5fb7ff"> Operator</tspan>
  </text>
</svg>
