<svg width="512" height="512" viewBox="0 0 512 512" fill="none" xmlns="http://www.w3.org/2000/svg">
<g clip-path="url(#clip0_1_4)">
<path d="M392.294 423.731C317.276 484.792 209.992 488.438 131.41 432.64C49.0496 374.139 18.473 265.83 55.9411 174.152L107.377 200.745C83.9168 263.188 101.796 333.64 154.081 377.508C191.642 409.006 243.692 420.71 293.304 408.811L284.375 371.507C246.497 380.59 207.022 371.845 178.729 348.129C135.332 311.695 123.218 251.116 149.248 200.806L158.075 183.757L38.7277 122.081L29.9213 139.11C-28.0371 251.003 6.06208 390.646 109.189 463.923C170.271 507.279 246.036 520.192 315.894 503.306C351.949 494.592 386.437 477.962 416.512 453.489C425.4 446.239 433.633 438.2 441.498 429.844L405.996 411.494C401.582 415.754 397.046 419.871 392.294 423.731Z" fill="#326CE5"/>
<path d="M402.964 48.087C311.46 -16.9984 185.969 -13.527 97.8227 56.5555C87.9002 64.4198 78.7763 73.1853 70.2054 82.3501L105.687 100.68C110.797 95.7542 116.101 91.0029 121.682 86.5587C196.557 27.0643 303.063 24.0742 380.733 79.3088C463.002 137.83 493.507 246.098 460.186 339.845L408.75 313.252C428.052 248.811 410.276 178.442 358.164 134.564C319.621 102.072 266.301 90.8083 215.398 103.895L224.563 141.138C263.291 130.877 304.435 139.438 333.476 163.912C376.74 200.346 388.772 260.844 362.783 311.081L353.956 328.131L473.324 389.806L482.109 372.777C539.996 260.936 505.989 121.375 402.975 48.0768L402.964 48.087Z" fill="#5FB7FF"/>
</g>
<defs>
<clipPath id="clip0_1_4">
<rect width="512" height="512" fill="white"/>
</clipPath>
</defs>
</svg>
