<!-- Logo icon fluxoperator.dev -->
<svg xmlns="http://www.w3.org/2000/svg" viewBox="0 0 64 64">
    <!-- Bottom-left spiral (outer to inner, counterclockwise) -->
    <path id="spiral-left" fill="#326ce5" d="M49.0358 52.966C39.6585 60.5986 26.248 61.0543 16.4252 54.0796C6.13019 46.767 2.30811 33.2284 6.99163 21.7686L13.4211 25.0927C10.4886 32.8982 12.7235 41.7046 19.2592 47.1881C23.9542 51.1254 30.4604 52.5884 36.662 51.101L35.5459 46.438C30.8112 47.5734 25.8768 46.4802 22.3401 43.5158C16.9155 38.9615 15.4012 31.389 18.655 25.1004L19.7584 22.9692L4.83995 15.2598L3.73915 17.3884C-3.50565 31.375 0.756753 48.8303 13.6476 57.99C21.2828 63.4095 30.7536 65.0236 39.4857 62.9129C43.9926 61.8236 48.3036 59.7449 52.063 56.6857C53.174 55.7794 54.2032 54.7746 55.1862 53.7302L50.7484 51.4364C50.1968 51.9689 49.6297 52.4834 49.0358 52.966Z"/>

    <!-- Top-right spiral (outer to inner, clockwise) -->
    <path id="spiral-right" fill="#5fb7ff" d="M50.3696 6.01048C38.9315 -2.1252 23.2451 -1.69128 12.2268 7.06904C10.9865 8.05208 9.84603 9.14776 8.77467 10.2934L13.2099 12.5846C13.8486 11.9689 14.5116 11.375 15.2092 10.8194C24.5686 3.38264 37.8819 3.00888 47.5907 9.9132C57.8742 17.2284 61.6873 30.7618 57.5222 42.4802L51.0928 39.1561C53.5056 31.101 51.2835 22.3049 44.7696 16.8201C39.9516 12.7586 33.2867 11.3506 26.9238 12.9865L28.0694 17.6418C32.9104 16.3593 38.0534 17.4294 41.6835 20.4886C47.0915 25.0428 48.5955 32.605 45.3468 38.8847L44.2435 41.0159L59.1644 48.7254L60.2627 46.5967C67.4985 32.6166 63.2476 15.1714 50.3708 6.0092"/>
</svg>